<?xml version="1.0" encoding="UTF-8"?>
<svg xmlns="http://www.w3.org/2000/svg" width="1200" height="500" viewBox="0 0 1200 500">
  <defs>
    <linearGradient id="bg" x1="0" y1="0" x2="0" y2="1">
      <stop offset="0%" stop-color="#eef4ff"/>
      <stop offset="100%" stop-color="#ffffff"/>
    </linearGradient>
    <linearGradient id="pill" x1="0" y1="0" x2="1" y2="0">
      <stop offset="0%" stop-color="#0b5fff"/>
      <stop offset="100%" stop-color="#0a58ff"/>
    </linearGradient>
  </defs>
  <rect x="0" y="0" width="1200" height="500" fill="url(#bg)"/>
  <g transform="translate(760,90)">
    <rect x="0" y="0" width="340" height="240" rx="18" fill="#ffffff" stroke="#e6eefc"/>
    <circle cx="80" cy="70" r="16" fill="#e7efff"/>
    <circle cx="130" cy="110" r="10" fill="#e7efff"/>
    <circle cx="220" cy="84" r="8" fill="#e7efff"/>
    <rect x="40" y="160" width="180" height="36" rx="8" fill="url(#pill)" opacity="0.9"/>
  </g>
  <g transform="translate(820,360)">
    <ellipse cx="120" cy="20" rx="120" ry="20" fill="#eef2ff"/>
  </g>
  <g transform="translate(180,120)">
    <text x="0" y="0" font-family="Arial, Helvetica, sans-serif" font-size="36" font-weight="800" fill="#0b5fff">MediMatch</text>
    <text x="0" y="40" font-family="Arial, Helvetica, sans-serif" font-size="18" fill="#334155">Connecting supplies with those in need.</text>
  </g>
  <g transform="translate(540,180)">
    <g transform="rotate(-20)">
      <rect x="0" y="0" width="44" height="120" rx="22" fill="url(#pill)" opacity="0.95"/>
      <rect x="44" y="46" width="44" height="74" rx="22" fill="#ff7474" opacity="0.9"/>
    </g>
  </g>
</svg>
